<?xml version="1.0" encoding="UTF-8" standalone="no"?>
<svg
   xmlns:dc="http://purl.org/dc/elements/1.1/"
   xmlns:cc="http://creativecommons.org/ns#"
   xmlns:rdf="http://www.w3.org/1999/02/22-rdf-syntax-ns#"
   xmlns:svg="http://www.w3.org/2000/svg"
   xmlns="http://www.w3.org/2000/svg"
   xmlns:sodipodi="http://sodipodi.sourceforge.net/DTD/sodipodi-0.dtd"
   xmlns:inkscape="http://www.inkscape.org/namespaces/inkscape"
   enable-background="new 0 0 32 32"
   height="32px"
   id="svg2"
   version="1.1"
   viewBox="0 0 32 32"
   width="32px"
   xml:space="preserve"
   inkscape:version="0.91 r13725"
   sodipodi:docname="light_off.svg"><metadata
     id="metadata13"><rdf:RDF><cc:Work
         rdf:about=""><dc:format>image/svg+xml</dc:format><dc:type
           rdf:resource="http://purl.org/dc/dcmitype/StillImage" /></cc:Work></rdf:RDF></metadata><defs
     id="defs11" /><sodipodi:namedview
     pagecolor="#ffffff"
     bordercolor="#666666"
     borderopacity="1"
     objecttolerance="10"
     gridtolerance="10"
     guidetolerance="10"
     inkscape:pageopacity="0"
     inkscape:pageshadow="2"
     inkscape:window-width="1080"
     inkscape:window-height="543"
     id="namedview9"
     showgrid="false"
     inkscape:zoom="7.375"
     inkscape:cx="16"
     inkscape:cy="16"
     inkscape:window-x="20"
     inkscape:window-y="43"
     inkscape:window-maximized="0"
     inkscape:current-layer="svg2" /><g
     id="background"><rect
       fill="none"
       height="32"
       width="32"
       y="0"
       id="rect4" /></g><g
     id="light_x5F_off"
     transform="translate(-1,0)"><path
       d="M 32,2 30,0 25.826,4.174 C 24.246,1.934 21.453,-0.028 17.001,0 11.646,-0.035 8.686,2.806 7.356,5.552 5.993,8.293 6.005,10.916 5.999,11 c 0.036,4.424 2.714,7.911 3.82,9.182 L 2,28 l 2,2 7.46,-7.46 c 0.132,0.326 0.244,0.65 0.319,0.951 0.111,0.443 0.167,0.834 0.194,1.108 0.027,0.273 0.023,0.4 0.027,0.4 l 0,5.001 2,0 2,2 2,0 2,-2 2,0 0,-5.039 c 0,-0.04 0.002,-0.142 0.025,-0.361 0.074,-0.83 0.443,-2.677 1.681,-3.894 0.051,-0.084 4.249,-4.165 4.292,-9.707 -0.003,-0.071 10e-4,-1.951 -0.814,-4.183 L 32,2 Z M 11.144,18.659 C 10.078,17.388 7.982,14.339 8,11 8,10.998 7.998,10.469 8.142,9.603 8.356,8.3 8.91,6.354 10.209,4.804 11.517,3.26 13.499,2.016 17.001,2 c 4.071,0.031 6.142,1.695 7.378,3.622 L 11.235,18.765 C 11.204,18.729 11.178,18.7 11.144,18.659 Z m 14.71,-9.056 c 0.147,0.866 0.139,1.397 0.145,1.397 0.004,2.228 -0.908,4.321 -1.853,5.851 -0.47,0.764 -0.941,1.383 -1.293,1.808 -0.351,0.424 -0.562,0.632 -0.562,0.634 -1.558,1.593 -2.047,3.548 -2.206,4.708 l -6.171,0 C 13.81,23.243 13.558,22.147 12.967,21.034 L 25.589,8.411 c 0.116,0.429 0.208,0.838 0.265,1.192 z"
       id="path7"
       inkscape:connector-curvature="0" /></g></svg>