<?xml version="1.0" encoding="UTF-8" standalone="no"?>
<svg
   xmlns:dc="http://purl.org/dc/elements/1.1/"
   xmlns:cc="http://creativecommons.org/ns#"
   xmlns:rdf="http://www.w3.org/1999/02/22-rdf-syntax-ns#"
   xmlns:svg="http://www.w3.org/2000/svg"
   xmlns="http://www.w3.org/2000/svg"
   xmlns:sodipodi="http://sodipodi.sourceforge.net/DTD/sodipodi-0.dtd"
   xmlns:inkscape="http://www.inkscape.org/namespaces/inkscape"
   enable-background="new 0 0 32 32"
   height="32px"
   id="svg2"
   version="1.1"
   viewBox="0 0 32 32"
   width="32px"
   xml:space="preserve"
   inkscape:version="0.91 r13725"
   sodipodi:docname="light_on_col.svg"><metadata
     id="metadata3440"><rdf:RDF><cc:Work
         rdf:about=""><dc:format>image/svg+xml</dc:format><dc:type
           rdf:resource="http://purl.org/dc/dcmitype/StillImage" /></cc:Work></rdf:RDF></metadata><defs
     id="defs3438" /><sodipodi:namedview
     pagecolor="#ffffff"
     bordercolor="#666666"
     borderopacity="1"
     objecttolerance="10"
     gridtolerance="10"
     guidetolerance="10"
     inkscape:pageopacity="0"
     inkscape:pageshadow="2"
     inkscape:window-width="1280"
     inkscape:window-height="691"
     id="namedview3436"
     showgrid="false"
     inkscape:zoom="11.313709"
     inkscape:cx="16.424717"
     inkscape:cy="17.74918"
     inkscape:window-x="0"
     inkscape:window-y="23"
     inkscape:window-maximized="0"
     inkscape:current-layer="light" /><g
     id="background"><rect
       fill="none"
       height="32"
       width="32"
       y="0"
       id="rect3431" /></g><g
     id="light"><path
       d="M 25.645,5.553 C 24.315,2.807 21.355,-0.034 16.002,0.001 10.647,-0.034 7.687,2.807 6.357,5.553 4.994,8.293 5.006,10.916 5,11 c 0.045,5.542 4.243,9.623 4.292,9.707 0.824,0.817 1.266,1.896 1.488,2.785 0.111,0.443 0.167,0.834 0.194,1.108 0.027,0.272 0.023,0.399 0.027,0.399 l 0,5.001 2,0 2,2 2,0 2,-2 2,0 0,-5.039 c 0,-0.04 0.002,-0.142 0.025,-0.361 0.074,-0.83 0.443,-2.677 1.681,-3.894 0.051,-0.084 4.249,-4.165 4.292,-9.707 -0.004,-0.083 0.008,-2.706 -1.354,-5.446 z m -2.498,11.298 c -0.47,0.764 -0.941,1.383 -1.293,1.808 -0.351,0.424 -0.562,0.632 -0.562,0.634 -1.558,1.593 -2.047,3.548 -2.206,4.708 l -6.171,0 c -0.16,-1.16 -0.649,-3.115 -2.208,-4.708 0,0 -0.21,-0.21 -0.562,-0.634 C 9.079,17.388 6.983,14.339 7.001,11 7.001,10.998 6.999,10.469 7.143,9.603 7.357,8.3 7.911,6.354 9.21,4.804 10.518,3.26 12.5,2.016 16.002,2 c 4.644,0.035 6.685,2.195 7.854,4.447 0.566,1.13 0.858,2.29 1,3.156 C 25.002,10.469 24.994,11 25,11 c 0.004,2.228 -0.908,4.321 -1.853,5.851 z"
       id="path3434"
       style="fill:#ffdd00;fill-opacity:1"
       inkscape:connector-curvature="0" /></g></svg>