<?xml version="1.0" encoding="UTF-8" standalone="no"?>
<svg
   xmlns:dc="http://purl.org/dc/elements/1.1/"
   xmlns:cc="http://creativecommons.org/ns#"
   xmlns:rdf="http://www.w3.org/1999/02/22-rdf-syntax-ns#"
   xmlns:svg="http://www.w3.org/2000/svg"
   xmlns="http://www.w3.org/2000/svg"
   xmlns:sodipodi="http://sodipodi.sourceforge.net/DTD/sodipodi-0.dtd"
   xmlns:inkscape="http://www.inkscape.org/namespaces/inkscape"
   enable-background="new 0 0 32 32"
   height="32px"
   id="svg2"
   version="1.1"
   viewBox="0 0 32 32"
   width="32px"
   xml:space="preserve"
   inkscape:version="0.91 r13725"
   sodipodi:docname="light_on.svg"><metadata
     id="metadata13"><rdf:RDF><cc:Work
         rdf:about=""><dc:format>image/svg+xml</dc:format><dc:type
           rdf:resource="http://purl.org/dc/dcmitype/StillImage" /></cc:Work></rdf:RDF></metadata><defs
     id="defs11" /><sodipodi:namedview
     pagecolor="#ffffff"
     bordercolor="#666666"
     borderopacity="1"
     objecttolerance="10"
     gridtolerance="10"
     guidetolerance="10"
     inkscape:pageopacity="0"
     inkscape:pageshadow="2"
     inkscape:window-width="949"
     inkscape:window-height="559"
     id="namedview9"
     showgrid="false"
     inkscape:zoom="7.375"
     inkscape:cx="16"
     inkscape:cy="16"
     inkscape:window-x="0"
     inkscape:window-y="0"
     inkscape:window-maximized="0"
     inkscape:current-layer="svg2" /><g
     id="background"><rect
       fill="none"
       height="32"
       width="32"
       y="0"
       id="rect4" /></g><g
     id="light"
     transform="translate(-0.999,0)"><path
       d="M 26.644,5.553 C 25.314,2.807 22.354,-0.034 17.001,0.001 11.646,-0.034 8.686,2.807 7.356,5.553 5.993,8.293 6.005,10.916 5.999,11 c 0.045,5.542 4.243,9.623 4.292,9.707 0.824,0.817 1.266,1.896 1.488,2.785 0.111,0.443 0.167,0.834 0.194,1.108 0.027,0.272 0.023,0.399 0.027,0.399 l 0,5.001 2,0 2,2 2,0 2,-2 2,0 0,-5.039 c 0,-0.04 0.002,-0.142 0.025,-0.361 0.074,-0.83 0.443,-2.677 1.681,-3.894 0.051,-0.084 4.249,-4.165 4.292,-9.707 -0.004,-0.083 0.008,-2.706 -1.354,-5.446 z m -2.498,11.298 c -0.47,0.764 -0.941,1.383 -1.293,1.808 -0.351,0.424 -0.562,0.632 -0.562,0.634 -1.558,1.593 -2.047,3.548 -2.206,4.708 l -6.171,0 c -0.16,-1.16 -0.649,-3.115 -2.208,-4.708 0,0 -0.21,-0.21 -0.562,-0.634 C 10.078,17.388 7.982,14.339 8,11 8,10.998 7.998,10.469 8.142,9.603 8.356,8.3 8.91,6.354 10.209,4.804 11.517,3.26 13.499,2.016 17.001,2 c 4.644,0.035 6.685,2.195 7.854,4.447 0.566,1.13 0.858,2.29 1,3.156 0.146,0.866 0.138,1.397 0.144,1.397 0.004,2.228 -0.908,4.321 -1.853,5.851 z"
       id="path7"
       inkscape:connector-curvature="0" /></g></svg>