<?xml version="1.0" encoding="UTF-8" standalone="no"?>
<svg
   xmlns:dc="http://purl.org/dc/elements/1.1/"
   xmlns:cc="http://creativecommons.org/ns#"
   xmlns:rdf="http://www.w3.org/1999/02/22-rdf-syntax-ns#"
   xmlns:svg="http://www.w3.org/2000/svg"
   xmlns="http://www.w3.org/2000/svg"
   xmlns:sodipodi="http://sodipodi.sourceforge.net/DTD/sodipodi-0.dtd"
   xmlns:inkscape="http://www.inkscape.org/namespaces/inkscape"
   enable-background="new 0 0 32 32"
   height="32px"
   id="svg2"
   version="1.1"
   viewBox="0 0 32 32"
   width="32px"
   xml:space="preserve"
   inkscape:version="0.91 r13725"
   sodipodi:docname="light_off_col.svg"><metadata
     id="metadata13"><rdf:RDF><cc:Work
         rdf:about=""><dc:format>image/svg+xml</dc:format><dc:type
           rdf:resource="http://purl.org/dc/dcmitype/StillImage" /><dc:title /></cc:Work></rdf:RDF></metadata><defs
     id="defs11" /><sodipodi:namedview
     pagecolor="#ffffff"
     bordercolor="#666666"
     borderopacity="1"
     objecttolerance="10"
     gridtolerance="10"
     guidetolerance="10"
     inkscape:pageopacity="0"
     inkscape:pageshadow="2"
     inkscape:window-width="1280"
     inkscape:window-height="685"
     id="namedview9"
     showgrid="false"
     inkscape:zoom="13.098305"
     inkscape:cx="5.2153617"
     inkscape:cy="16.130873"
     inkscape:window-x="1"
     inkscape:window-y="23"
     inkscape:window-maximized="0"
     inkscape:current-layer="svg2" /><g
     id="background"><rect
       fill="none"
       height="32"
       width="32"
       y="0"
       id="rect4" /></g><path
     style="fill:#a0a0a0;stroke:none;stroke-width:1px;stroke-linecap:butt;stroke-linejoin:miter;stroke-opacity:1"
     d="m 13.944629,30.928814 -1.010162,-1.01695 -0.973566,0 -0.973566,0 -0.05848,-3.084745 C 10.8809,24.297489 10.826562,23.623752 10.626898,23.0832 L 10.38342,22.424026 6.636331,26.169322 2.889242,29.914618 1.944621,28.962704 1,28.010788 4.89532,24.113732 8.790639,20.216674 7.974612,19.132065 C 6.983508,17.814755 5.789971,15.450408 5.373647,13.979661 4.934779,12.429271 4.939295,9.727624 5.383547,8.0813559 6.269067,4.7995765 8.0962715,2.4505049 10.758231,1.1716148 12.226985,0.46597824 13.299993,0.21581097 15.26121,0.1217642 c 3.571634,-0.17127145 6.170085,0.74060143 8.390796,2.9445764 0.477914,0.4743142 0.868937,0.9119844 0.868937,0.9726007 0,0.343455 0.543718,-0.09738 2.373909,-1.9247134 l 2.038107,-2.03492455 0.944005,0.95129565 0.944007,0.9512958 -2.395859,2.4056628 -2.395859,2.4056627 0.34936,1.220339 c 0.296722,1.0364677 0.349839,1.4961459 0.352533,3.0508477 0.0028,1.587549 -0.0434,1.983482 -0.347752,2.983051 -0.704076,2.312387 -1.779954,4.223837 -3.543634,6.295766 -1.747404,2.05281 -1.979834,2.845213 -1.979834,6.749671 l 0,2.818969 -0.986445,0 -0.986445,0 -1.010161,1.01695 -1.010163,1.016949 -0.95594,0 -0.95594,0 z m 5.247139,-7.671717 c 0.218847,-1.151566 0.949316,-2.614316 1.815007,-3.634514 2.279869,-2.686782 3.189601,-4.335188 3.72794,-6.754917 0.248983,-1.119132 0.209181,-3.0158713 -0.08452,-4.027796 L 24.496477,8.3102483 18.152201,14.653447 11.807926,20.996645 12.1154,21.75934 c 0.169111,0.419482 0.385003,1.113541 0.47976,1.542355 l 0.172285,0.779661 3.13384,0 3.13384,0 z M 16.778296,12.230742 23.339729,5.6682637 23.042868,5.1879344 C 22.217371,3.852251 20.171259,2.5701388 18.255431,2.1880822 16.941373,1.9260312 14.709439,1.9236437 13.470053,2.182963 9.666234,2.9788442 7.130969,6.2703116 6.92994,10.673819 c -0.064843,1.42038 -0.036986,1.697316 0.282909,2.812526 0.195159,0.680357 0.594195,1.710359 0.886747,2.288893 0.546042,1.079822 1.842383,3.017982 2.018581,3.017982 0.05428,0 3.051332,-2.953114 6.660119,-6.562478 z"
     id="path3355"
     inkscape:connector-curvature="0"
     sodipodi:nodetypes="ccccsscccccccsssssssscccccscsssccccccccsssscccsscccsscssssssss" /><path
     style="fill:#a0a0a0;stroke:none;stroke-width:1px;stroke-linecap:butt;stroke-linejoin:miter;stroke-opacity:1"
     d="m 8.1356037,12.743622 c -0.066563,-0.322523 -0.094967,-0.513878 -0.092276,-0.621638 0.00139,-0.05562 0.014312,-0.0076 0.033516,0.124464 0.017191,0.118241 0.052456,0.319755 0.078368,0.44781 0.025912,0.128054 0.043102,0.244856 0.038201,0.25956 -0.0049,0.0147 -0.030916,-0.07988 -0.057809,-0.210196 z"
     id="path3359"
     inkscape:connector-curvature="0" /><path
     style="fill:#a0a0a0;stroke:none;stroke-width:1px;stroke-linecap:butt;stroke-linejoin:miter;stroke-opacity:1"
     d=""
     id="path3365"
     inkscape:connector-curvature="0" /><path
     style="fill:#a0a0a0;stroke:none;stroke-width:1px;stroke-linecap:butt;stroke-linejoin:miter;stroke-opacity:1"
     d="m 8.8108311,7.109484 c 0,-0.01867 0.00987,-0.04922 0.021937,-0.067889 0.019499,-0.030173 0.021937,-0.030173 0.021937,0 0,0.01867 -0.00987,0.04922 -0.021937,0.067889 -0.019499,0.030173 -0.021937,0.030173 -0.021937,0 z"
     id="path3367"
     inkscape:connector-curvature="0" /><path
     style="fill:#a0a0a0;stroke:none;stroke-width:1px;stroke-linecap:butt;stroke-linejoin:miter;stroke-opacity:1"
     d=""
     id="path3369"
     inkscape:connector-curvature="0" /><path
     style="fill:#a0a0a0;stroke:none;stroke-width:1px;stroke-linecap:butt;stroke-linejoin:miter;stroke-opacity:1"
     d=""
     id="path3371"
     inkscape:connector-curvature="0" /><path
     style="fill:#a0a0a0;stroke:none;stroke-width:1px;stroke-linecap:butt;stroke-linejoin:miter;stroke-opacity:1"
     d="m 8.7655715,7.222633 c 0,-0.01867 0.00987,-0.04922 0.021937,-0.067889 0.019499,-0.030173 0.021937,-0.030173 0.021937,0 0,0.01867 -0.00987,0.04922 -0.021937,0.067889 -0.019499,0.030173 -0.021937,0.030173 -0.021937,0 z"
     id="path3373"
     inkscape:connector-curvature="0" /><path
     style="fill:#a0a0a0;stroke:none;stroke-width:1px;stroke-linecap:butt;stroke-linejoin:miter;stroke-opacity:1"
     d=""
     id="path3377"
     inkscape:connector-curvature="0" /><path
     style="fill:#a0a0a0;stroke:none;stroke-width:1px;stroke-linecap:butt;stroke-linejoin:miter;stroke-opacity:1"
     d=""
     id="path3387"
     inkscape:connector-curvature="0" /><path
     style="fill:#a0a0a0;stroke:none;stroke-width:1px;stroke-linecap:butt;stroke-linejoin:miter;stroke-opacity:1"
     d=""
     id="path3393"
     inkscape:connector-curvature="0" /><path
     style="fill:#a0a0a0;stroke:none;stroke-width:1px;stroke-linecap:butt;stroke-linejoin:miter;stroke-opacity:1"
     d=""
     id="path3401"
     inkscape:connector-curvature="0" /><path
     style="fill:#a0a0a0;stroke:none;stroke-width:1px;stroke-linecap:butt;stroke-linejoin:miter;stroke-opacity:1"
     d=""
     id="path3405"
     inkscape:connector-curvature="0" /><path
     style="fill:#a0a0a0;stroke:none;stroke-width:1px;stroke-linecap:butt;stroke-linejoin:miter;stroke-opacity:1"
     d=""
     id="path3407"
     inkscape:connector-curvature="0" /><path
     style="fill:#a0a0a0;stroke:none;stroke-width:1px;stroke-linecap:butt;stroke-linejoin:miter;stroke-opacity:1"
     d=""
     id="path3409"
     inkscape:connector-curvature="0" /><path
     style="fill:#a0a0a0;stroke:none;stroke-width:1px;stroke-linecap:butt;stroke-linejoin:miter;stroke-opacity:1"
     d=""
     id="path3413"
     inkscape:connector-curvature="0" /><path
     style="fill:#a0a0a0;stroke:none;stroke-width:1px;stroke-linecap:butt;stroke-linejoin:miter;stroke-opacity:1"
     d=""
     id="path3417"
     inkscape:connector-curvature="0" /><path
     style="fill:#a0a0a0;stroke:none;stroke-width:1px;stroke-linecap:butt;stroke-linejoin:miter;stroke-opacity:1"
     d=""
     id="path3419"
     inkscape:connector-curvature="0" /><path
     style="fill:#a0a0a0;stroke:none;stroke-width:1px;stroke-linecap:butt;stroke-linejoin:miter;stroke-opacity:1"
     d=""
     id="path3421"
     inkscape:connector-curvature="0" /><path
     style="fill:#a0a0a0;stroke:none;stroke-width:1px;stroke-linecap:butt;stroke-linejoin:miter;stroke-opacity:1"
     d=""
     id="path3423"
     inkscape:connector-curvature="0" /><path
     style="fill:#a0a0a0;stroke:none;stroke-width:1px;stroke-linecap:butt;stroke-linejoin:miter;stroke-opacity:1"
     d=""
     id="path3425"
     inkscape:connector-curvature="0" /></svg>